<svg width="280" height="33" viewBox="0 0 280 33" fill="none" xmlns="http://www.w3.org/2000/svg">
<g clip-path="url(#clip0_178_3233)">
<path d="M26.3316 13.2784C25.9516 13.6184 25.5716 13.8684 25.5716 14.4184C25.5716 14.9684 26.0316 15.1384 26.4516 15.3484C28.1816 16.0184 31.1716 18.2484 31.1716 21.7884C31.1716 25.9984 28.3516 31.1784 19.8916 31.1784C18.4616 31.1784 17.1516 31.1384 15.8916 31.0484C14.6316 31.0084 13.3616 30.9684 12.0616 30.9684C10.6316 30.9684 9.15156 31.0084 7.72156 31.0484C6.29156 31.1284 4.86156 31.1784 3.38156 31.1784C2.07156 31.1784 0.601562 30.4184 0.601562 28.9484C0.601562 26.3384 3.34156 28.9884 3.59156 21.9984L4.05156 9.87844C4.31156 3.50844 0.691562 6.40844 0.691562 3.50844C0.691562 1.90844 2.41156 1.14844 3.72156 1.14844C5.28156 1.14844 6.84156 1.22844 8.39156 1.27844C9.95156 1.35844 11.5116 1.44844 13.0616 1.44844C14.0716 1.44844 15.0416 1.36844 16.0116 1.27844C16.9816 1.23844 17.9916 1.14844 18.9616 1.14844C26.6616 1.14844 28.6416 4.80844 28.6416 8.04844C28.6416 9.98844 27.8416 12.0484 26.3216 13.2684L26.3316 13.2784ZM14.0816 11.4184C14.0816 13.0584 14.0016 13.8584 15.3016 13.8584C17.8316 13.8584 18.4216 12.0884 18.4216 9.77844C18.4216 7.88844 17.7916 5.52844 15.4716 5.52844C13.9116 5.52844 14.0816 6.78844 14.0816 8.00844V11.4184ZM14.0816 21.6984C14.0816 26.5784 14.8816 26.7084 16.1816 26.7084C18.5816 26.7084 19.4216 25.0684 19.4216 22.8784C19.4216 20.3084 18.6616 18.0384 15.7216 18.0384C14.4116 18.0384 14.1216 18.7084 14.0816 19.5984V21.6984Z" fill="white" stroke="black" stroke-width="1.21" stroke-miterlimit="10"/>
<path d="M58.2397 8.73074C58.2397 4.23074 54.6197 5.95074 54.6197 3.51074C54.6197 0.900736 59.4997 0.980736 61.2297 0.980736C62.8297 0.980736 67.4597 0.980736 67.4597 3.42074C67.4597 5.86074 64.2997 4.35074 64.2997 8.18074V19.5507C64.2997 21.4407 64.3397 31.5507 49.7797 31.5507C33.1897 31.5507 35.0497 18.7507 35.0497 18.2507V8.52074C35.2197 5.87074 32.3597 5.87074 32.3597 3.93074C32.3597 3.34074 31.8997 0.980736 40.5697 0.980736C47.4297 0.980736 48.8197 2.24074 48.8197 3.88074C48.8197 6.91074 45.7497 4.09073 45.5397 9.23073V16.9807C45.5397 21.9907 47.4297 25.1907 51.8997 25.1907C58.5497 25.1907 58.2597 19.6707 58.2597 19.2107V8.73074H58.2397Z" fill="white" stroke="black" stroke-width="1.21" stroke-miterlimit="10"/>
<path d="M72.4306 8.34844C72.5106 4.00844 69.3606 6.11844 69.3606 3.37844C69.3606 1.43844 71.8006 1.14844 73.2806 1.14844H87.0006C98.7006 1.14844 102.531 8.38844 102.531 15.9684C102.531 23.5484 97.9406 31.1684 87.2906 31.1684C85.4806 31.1684 83.9606 31.1284 82.6606 31.0384C81.3506 30.9984 80.2206 30.9584 79.0406 30.9584C77.8606 30.9584 76.6406 30.9984 75.4606 31.0384C74.2806 31.1184 73.1006 31.1684 71.8806 31.1684C70.4506 31.1684 68.6406 30.4484 68.6406 28.7684C68.6406 25.7384 71.9706 29.1084 72.0906 22.9584L72.4306 8.34844ZM82.5406 23.7584C82.5406 25.9084 82.8806 26.7884 85.1506 26.7884C90.4506 26.7884 91.3806 21.3584 91.3806 17.1484C91.3806 7.29844 87.6806 5.73844 84.4306 5.73844C82.6606 5.73844 82.5406 6.45844 82.5406 8.05844V23.7584Z" fill="white" stroke="black" stroke-width="1.21" stroke-miterlimit="10"/>
<path d="M107.919 8.34844C107.999 4.00844 104.849 6.11844 104.849 3.37844C104.849 1.43844 107.289 1.14844 108.769 1.14844H122.489C134.189 1.14844 138.019 8.38844 138.019 15.9684C138.019 23.5484 133.429 31.1684 122.779 31.1684C120.969 31.1684 119.449 31.1284 118.149 31.0384C116.839 30.9984 115.709 30.9584 114.529 30.9584C113.349 30.9584 112.129 30.9984 110.949 31.0384C109.769 31.1184 108.589 31.1684 107.369 31.1684C105.939 31.1684 104.129 30.4484 104.129 28.7684C104.129 25.7384 107.459 29.1084 107.579 22.9584L107.919 8.34844ZM118.029 23.7584C118.029 25.9084 118.369 26.7884 120.639 26.7884C125.939 26.7884 126.869 21.3584 126.869 17.1484C126.869 7.29844 123.169 5.73844 119.919 5.73844C118.149 5.73844 118.029 6.45844 118.029 8.05844V23.7584Z" fill="white" stroke="black" stroke-width="1.21" stroke-miterlimit="10"/>
<path d="M163.199 12.56C161.349 14.88 161.219 16.14 161.219 19.09C161.219 22.96 161.429 24.65 161.809 25.45C162.399 26.67 164.629 26.42 164.629 28.4C164.629 31.43 157.979 31.43 155.919 31.43C147.669 31.43 146.569 29.54 146.569 28.4C146.569 26.13 148.969 26.97 149.729 25.24C150.149 24.27 150.399 22.34 150.399 18.25C150.399 15.85 150.019 15.05 148.549 13.16L143.789 7.65C141.729 5.25 138.989 5.92 138.989 3.86C138.989 2.89 138.699 1 148.499 1C157.259 1 157.169 2.64 157.169 3.57C157.169 4.66 155.989 5.09 155.989 5.97C155.989 6.85 157.669 9.55 158.729 9.55C159.789 9.55 161.589 7.32 161.589 6.35C161.589 5.17 160.369 5.09 160.369 3.49C160.369 1.01 165.249 1.01 166.849 1.01C172.109 1.01 173.499 1.64 173.499 3.49C173.499 6.18 170.469 4.63 168.359 6.9L163.179 12.58L163.199 12.56Z" fill="white" stroke="black" stroke-width="1.21" stroke-miterlimit="10"/>
<path d="M213.089 13.2802C212.709 13.6202 212.329 13.8702 212.329 14.4202C212.329 14.9702 212.789 15.1402 213.209 15.3502C214.939 16.0202 217.929 18.2502 217.929 21.7902C217.929 26.0002 215.109 31.1802 206.649 31.1802C205.219 31.1802 203.909 31.1402 202.649 31.0502C201.389 31.0102 200.119 30.9702 198.819 30.9702C197.389 30.9702 195.909 31.0102 194.479 31.0502C193.049 31.1302 191.619 31.1802 190.139 31.1802C188.839 31.1802 187.359 30.4202 187.359 28.9502C187.359 26.3402 190.099 28.9902 190.349 22.0002L190.809 9.88016C191.059 3.52016 187.439 6.43016 187.439 3.52016C187.439 1.92016 189.169 1.16016 190.469 1.16016C192.029 1.16016 193.589 1.24016 195.139 1.29016C196.699 1.37016 198.259 1.46016 199.809 1.46016C200.819 1.46016 201.789 1.38016 202.759 1.29016C203.729 1.25016 204.739 1.16016 205.709 1.16016C213.409 1.16016 215.389 4.82016 215.389 8.06016C215.389 10.0002 214.589 12.0602 213.069 13.2802H213.089ZM200.839 11.4202C200.839 13.0602 200.759 13.8602 202.059 13.8602C204.589 13.8602 205.179 12.0902 205.179 9.78016C205.179 7.89016 204.549 5.53016 202.229 5.53016C200.669 5.53016 200.839 6.79016 200.839 8.01016V11.4202ZM200.839 21.7002C200.839 26.5802 201.639 26.7102 202.939 26.7102C205.339 26.7102 206.179 25.0702 206.179 22.8802C206.179 20.3102 205.419 18.0402 202.479 18.0402C201.169 18.0402 200.879 18.7102 200.839 19.6002V21.7002Z" fill="white" stroke="black" stroke-width="1.21" stroke-miterlimit="10"/>
<path d="M236.499 1.44938C242.139 1.44938 242.939 0.609375 243.609 0.609375C246.009 0.609375 247.019 4.73937 247.019 6.58938C247.019 7.97938 246.469 9.61938 244.829 9.61938C241.499 9.61938 244.199 5.57937 236.199 5.57937C231.529 5.57937 231.989 6.41938 231.989 11.2594C231.989 13.6994 232.119 13.7894 234.679 13.7894C237.879 13.7894 235.479 9.11938 238.469 9.11938C240.909 9.11938 241.079 13.8794 241.079 15.5194C241.079 17.2494 240.789 22.2994 238.259 22.2994C235.729 22.2994 238.259 17.8794 234.009 17.8794C232.239 17.8794 232.279 19.4794 232.279 20.8294C232.279 26.9794 232.699 26.6794 237.119 26.6794C245.749 26.6794 243.309 20.7394 246.759 20.7394C248.109 20.7394 248.779 22.2594 248.779 23.4294C248.779 26.2894 246.509 31.4294 244.819 31.4294C244.529 31.4294 243.849 31.2994 242.969 31.1794C242.039 31.0994 240.869 30.9694 239.429 30.9694H222.129C219.349 30.9694 219.309 29.7094 219.309 29.1594C219.309 26.8394 222.169 28.6994 222.469 24.2294C222.969 16.5694 223.019 17.3294 222.599 9.70938C222.309 3.26938 219.109 6.58938 219.109 3.60938C219.109 1.03938 222.649 1.45938 224.369 1.45938H236.489L236.499 1.44938Z" fill="white" stroke="black" stroke-width="1.21" stroke-miterlimit="10"/>
<path d="M267.07 1.44938C272.71 1.44938 273.51 0.609375 274.18 0.609375C276.58 0.609375 277.59 4.73937 277.59 6.58938C277.59 7.97938 277.04 9.61938 275.4 9.61938C272.07 9.61938 274.77 5.57937 266.77 5.57937C262.1 5.57937 262.56 6.41938 262.56 11.2594C262.56 13.6994 262.69 13.7894 265.25 13.7894C268.45 13.7894 266.05 9.11938 269.04 9.11938C271.48 9.11938 271.65 13.8794 271.65 15.5194C271.65 17.2494 271.36 22.2994 268.83 22.2994C266.3 22.2994 268.83 17.8794 264.58 17.8794C262.81 17.8794 262.85 19.4794 262.85 20.8294C262.85 26.9794 263.27 26.6794 267.69 26.6794C276.32 26.6794 273.88 20.7394 277.33 20.7394C278.68 20.7394 279.35 22.2594 279.35 23.4294C279.35 26.2894 277.08 31.4294 275.39 31.4294C275.1 31.4294 274.42 31.2994 273.54 31.1794C272.61 31.0994 271.44 30.9694 270 30.9694H252.7C249.92 30.9694 249.88 29.7094 249.88 29.1594C249.88 26.8394 252.74 28.6994 253.04 24.2294C253.54 16.5694 253.59 17.3294 253.17 9.70938C252.88 3.26938 249.68 6.58938 249.68 3.60938C249.68 1.03938 253.22 1.45938 254.94 1.45938H267.06L267.07 1.44938Z" fill="white" stroke="black" stroke-width="1.21" stroke-miterlimit="10"/>
</g>
<defs>
<clipPath id="clip0_178_3233">
<rect width="279.97" height="32.15" fill="white"/>
</clipPath>
</defs>
</svg>
